<svg xmlns="http://www.w3.org/2000/svg" width="213.28" height="193.074" viewBox="0 0 213.28 193.074">
  <g id="Слой_2" data-name="Слой 2" transform="translate(0 -0.016)">
    <g id="icons" transform="translate(0 0.016)">
      <path id="Контур_1" data-name="Контур 1" d="M207.763,56.915,112.956,1.529a11.3,11.3,0,0,0-11.3,0L6.25,55.918A11.3,11.3,0,0,0,.6,65.613L0,126.326a11.3,11.3,0,0,0,5.648,9.865l94.845,55.386a11.3,11.3,0,0,0,11.3,0l95.3-54.388a11.3,11.3,0,0,0,5.648-9.7l.546-60.714a11.3,11.3,0,0,0-5.516-9.865Z" transform="translate(0 -0.016)" fill="#3282b8"/>
      <path id="Контур_2" data-name="Контур 2" d="M104.472,182.507a.941.941,0,1,1,0-1.883,10.012,10.012,0,0,0,1.676-.264.968.968,0,0,1,.452,1.883,11.635,11.635,0,0,1-2,.339Zm-3.765-.358h-.245a12.688,12.688,0,0,1-1.883-.7.943.943,0,0,1,.791-1.713,9.562,9.562,0,0,0,1.6.584.949.949,0,0,1-.245,1.883Zm8.942-1.412a1,1,0,0,1-.828-.489.96.96,0,0,1,.377-1.28l1.619-.9a.941.941,0,0,1,1.28.358.922.922,0,0,1-.358,1.28l-1.638.9a.96.96,0,0,1-.377.132ZM95.7,179.7a.885.885,0,0,1-.471-.132l-1.619-.9a.979.979,0,0,1-.358-1.3.941.941,0,0,1,1.3-.339l1.619.922A.941.941,0,0,1,95.7,179.7Zm18.826-1.694a.922.922,0,0,1-.32-1.751l1.619-.9a.941.941,0,1,1,.922,1.638l-1.638.9a.941.941,0,0,1-.489.113Zm-23.7-1.073a1.016,1.016,0,0,1-.471-.113l-1.619-.922a.941.941,0,0,1,.922-1.638l1.619.922a.941.941,0,0,1-.452,1.751Zm28.691-1.619a.923.923,0,0,1-.828-.489.941.941,0,0,1,.377-1.28l1.619-.9a.96.96,0,0,1,1.28.377.923.923,0,0,1-.358,1.28l-1.638.9a1,1,0,0,1-.452.113Zm-33.548-1.13a.885.885,0,0,1-.471-.132l-1.619-.922a.941.941,0,0,1-.358-1.28.96.96,0,0,1,1.3-.358l1.619.922a.96.96,0,0,1-.471,1.77Zm38.367-1.6a.923.923,0,0,1-.828-.489.941.941,0,0,1,.377-1.28l1.619-.9a.96.96,0,0,1,1.28.377.941.941,0,0,1-.358,1.28l-1.638.9a1,1,0,0,1-.377.113Zm-43.3-1.167a.847.847,0,0,1-.471-.132l-1.619-.922a.922.922,0,0,1-.358-1.28.96.96,0,0,1,1.28-.358l1.619.922a.96.96,0,0,1,.358,1.3.941.941,0,0,1-.659.471Zm48.232-1.544a.923.923,0,0,1-.828-.489.941.941,0,0,1,.358-1.28l1.638-.9a.948.948,0,0,1,.922,1.657l-1.638.9A1,1,0,0,1,129.266,169.875Zm-52.995-1.224a.941.941,0,0,1-.452-.113l-1.638-.922a.945.945,0,0,1,.941-1.638l1.619.922a.941.941,0,0,1-.471,1.751Zm57.89-1.487a.96.96,0,0,1-.828-.489.941.941,0,0,1,.358-1.28l1.638-.9a.935.935,0,1,1,.9,1.638l-1.619.9a.828.828,0,0,1-.414.132ZM71.452,165.9a1.017,1.017,0,0,1-.471-.113l-1.619-.922a.941.941,0,1,1,.922-1.638l1.619.922a.941.941,0,0,1-.452,1.751Zm67.641-1.431a.96.96,0,0,1-.828-.489.922.922,0,0,1,.358-1.28l1.638-.9a.941.941,0,0,1,1.28.358.96.96,0,0,1-.377,1.28l-1.619.9a.829.829,0,0,1-.452.113Zm-72.517-1.318a.791.791,0,0,1-.452-.132l-1.638-.885a.945.945,0,1,1,.941-1.638l1.619.922a.96.96,0,0,1,.358,1.28.922.922,0,0,1-.828.433Zm77.393-1.412a.941.941,0,0,1-.452-1.751l1.638-.9a.941.941,0,0,1,1.28.358.96.96,0,0,1-.377,1.28l-1.638.9a.941.941,0,0,1-.452.094Zm-82.25-1.355a1.017,1.017,0,0,1-.471-.113l-1.638-.941a.96.96,0,0,1-.358-1.3.922.922,0,0,1,1.28-.339l1.638.922a.941.941,0,0,1-.471,1.751Zm87.145-1.355a.979.979,0,0,1-.828-.471.941.941,0,0,1,.377-1.28l1.638-.922a.944.944,0,1,1,.9,1.657l-1.638.9a.941.941,0,0,1-.452.094Zm-92.021-1.412a.941.941,0,0,1-.452-.113l-1.638-1.017a.945.945,0,0,1,.941-1.638l1.619.922a.96.96,0,0,1,.358,1.28.941.941,0,0,1-.828.546Zm96.9-1.318a.941.941,0,0,1-.452-1.77l1.638-.9a.944.944,0,0,1,.9,1.657l-1.638.9a.941.941,0,0,1-.452.113Zm-101.66-1.45a.847.847,0,0,1-.471-.132L49.99,153.8a.941.941,0,0,1,.922-1.638l1.619.922a.941.941,0,0,1,.358,1.28.922.922,0,0,1-.81.489Zm106.668-1.261a.941.941,0,0,1-.452-1.77l1.619-.9a.948.948,0,1,1,.922,1.657l-1.638.9a.941.941,0,0,1-.546.113ZM47.2,152.085a.828.828,0,0,1-.452-.132l-1.638-.922a.941.941,0,0,1,.941-1.619l1.619.9a.96.96,0,0,1,.358,1.3.941.941,0,0,1-.922.471Zm116.344-1.243a.96.96,0,0,1-.828-.489.941.941,0,0,1,.376-1.28l1.619-.9a.941.941,0,0,1,1.28.377.9.9,0,0,1-.358,1.261l-1.638.922A.941.941,0,0,1,163.548,150.842Zm-121.3-1.563a1.073,1.073,0,0,1-.471-.113l-1.619-.922a.96.96,0,0,1-.358-1.28.941.941,0,0,1,1.28-.358l1.638.922a.941.941,0,0,1-.471,1.751Zm126.134-1.148a.96.96,0,0,1-.828-.49.941.941,0,0,1,.376-1.28l1.619-.9a.941.941,0,0,1,1.28.358.922.922,0,0,1-.358,1.28l-1.638.9a.829.829,0,0,1-.4.169ZM37.32,146.512a1,1,0,0,1-.452-.113l-1.619-.922a.941.941,0,1,1,.922-1.638l1.619.922a.941.941,0,0,1-.471,1.751ZM173.281,145.4a.922.922,0,0,1-.452-1.751l1.619-.9a.941.941,0,0,1,1.28.358.922.922,0,0,1-.358,1.28l-1.638.9a1,1,0,0,1-.4.151ZM32.463,143.764a.885.885,0,0,1-.471-.132l-1.619-.922a.941.941,0,1,1,.922-1.638l1.638.922a.987.987,0,0,1-.414,1.807Zm145.75-1.035a.941.941,0,0,1-.471-1.751l1.638-.9a.922.922,0,0,1,1.28.358.941.941,0,0,1-.358,1.28l-1.638.9A1,1,0,0,1,178.213,142.728ZM27.606,141.034a1.016,1.016,0,0,1-.471-.113L25.516,140a.96.96,0,0,1-.358-1.3.922.922,0,0,1,1.28-.339l1.619.922a.941.941,0,0,1-.452,1.751Zm155.464-1.017a.922.922,0,0,1-.828-.489.941.941,0,0,1,.358-1.28l1.638-.9a.96.96,0,0,1,1.28.377.941.941,0,0,1-.377,1.28l-1.619.9a1,1,0,0,1-.4.113ZM22.73,138.266a1.073,1.073,0,0,1-.471-.113l-1.619-.922a.945.945,0,0,1,.941-1.638l1.619.922a.96.96,0,0,1,.358,1.28.979.979,0,0,1-.772.471Zm165.235-.96a.922.922,0,0,1-.828-.489.941.941,0,0,1,.358-1.28l1.638-.9a.944.944,0,1,1,.9,1.657l-1.619.9a1,1,0,0,1-.4.113ZM17.873,135.424a.847.847,0,0,1-.471-.132l-1.619-.922a.922.922,0,0,1-.358-1.28.96.96,0,0,1,1.28-.358l1.619.922a.941.941,0,0,1,.358,1.28.922.922,0,0,1-.753.584Zm174.968-.922a.922.922,0,0,1-.81-.489.941.941,0,0,1,.358-1.28l1.638-.9a.96.96,0,0,1,1.28.358.979.979,0,0,1-.377,1.3l-1.619.9a1.016,1.016,0,0,1-.414.207ZM13,132.619a.885.885,0,0,1-.452,0l-1.619-.9a.979.979,0,0,1-.264-1.3.96.96,0,0,1,1.243-.282l1.619.922a.941.941,0,0,1,.358,1.28.96.96,0,0,1-.828.414Zm184.739-.866a.941.941,0,0,1-.452-1.77l.9-.489.64-.4a.941.941,0,0,1,1.318.245.96.96,0,0,1-.264,1.318l-.791.471-.9.489a.791.791,0,0,1-.4.264ZM8.215,129.945a.979.979,0,0,1-.546-.169,11.145,11.145,0,0,1-1.544-1.28.945.945,0,1,1,1.337-1.337,8.942,8.942,0,0,0,1.318,1.092.941.941,0,0,1,.245,1.318A.922.922,0,0,1,8.215,129.945Zm193.907-1.563a1,1,0,0,1-.565-.169.96.96,0,0,1-.207-1.318,9.508,9.508,0,0,0,.866-1.45.941.941,0,1,1,1.694.81,10.974,10.974,0,0,1-1.035,1.751.96.96,0,0,1-.772.376ZM4.657,125.709a.9.9,0,0,1-.847-.546,11.635,11.635,0,0,1-.678-1.883.96.96,0,0,1,.7-1.148.941.941,0,0,1,1.13.7,8.528,8.528,0,0,0,.565,1.6.941.941,0,0,1-.471,1.243.979.979,0,0,1-.4.038Zm199.366-2.5h0a.941.941,0,0,1-.866-1.017V120.4a.941.941,0,0,1,.941-.941h0a.941.941,0,0,1,.922.96v1.92A.941.941,0,0,1,204.024,123.206ZM3.773,120.25h0a.922.922,0,0,1-.922-.941v-1.883a.941.941,0,0,1,.941-.941h0a.941.941,0,0,1,.941.96v1.883A.96.96,0,0,1,3.773,120.25ZM204.1,117.614h0a.941.941,0,0,1-.922-.96v-1.883a.923.923,0,0,1,.941-.922h0a.941.941,0,0,1,.941.941v1.883a.941.941,0,0,1-.96.941ZM3.81,114.659h0a.941.941,0,0,1-.941-.96v-1.883a.96.96,0,0,1,.941-.922h0a.922.922,0,0,1,.922.941v1.883a.941.941,0,0,1-.923.941Zm200.345-2.636h0a.941.941,0,0,1-.922-.96V109.18a.885.885,0,0,1,.941-.922.941.941,0,0,1,.941.941v1.883a.96.96,0,0,1-.96.941ZM3.867,109.067h0a.96.96,0,0,1-.941-.96v-1.883a.941.941,0,1,1,1.883,0v1.883a.941.941,0,0,1-.941.96Zm200.326-2.636h0a.979.979,0,0,1-.941-.96v-1.883a.96.96,0,0,1,.941-.922h0a.922.922,0,0,1,.922.941v1.883a.941.941,0,0,1-.923.941ZM3.923,103.476h0a.96.96,0,0,1-.922-.96v-1.883a.941.941,0,0,1,.941-.941h0a.96.96,0,0,1,.941.96v1.883a.941.941,0,0,1-.96.941Zm200.326-2.654h0a.941.941,0,0,1-.941-.941V98a.96.96,0,0,1,.941-.941h0a.941.941,0,0,1,.922.96V99.9a.922.922,0,0,1-.922.922ZM3.98,97.866h0a.922.922,0,0,1-.922-.941V95.042A.941.941,0,0,1,4,94.1H4a.96.96,0,0,1,.941.96v1.883a.96.96,0,0,1-.96.922ZM204.306,95.23h0a.941.941,0,0,1-.941-.941V92.482a.941.941,0,0,1,.941-.941h0a.941.941,0,0,1,.922.96v1.883A.922.922,0,0,1,204.306,95.23ZM4.017,92.275h0a.941.941,0,0,1-.941-.941V89.451a.96.96,0,0,1,.941-.941h0a.941.941,0,0,1,.922.96v1.883A.922.922,0,0,1,4.017,92.275Zm200.345-2.636h0a.941.941,0,0,1-.922-.941V86.834a.941.941,0,0,1,.941-.941h0a.941.941,0,0,1,.941.941v1.883a.941.941,0,0,1-.96.922ZM4.074,86.683h0a.941.941,0,0,1-.941-.941V83.859a.941.941,0,0,1,.941-.922h0A.941.941,0,0,1,5,83.878v1.883a.941.941,0,0,1-.922.922Zm200.345-2.636h0a.941.941,0,0,1-.922-.96v-1.9a.96.96,0,0,1,.941-.922.941.941,0,0,1,.941.941v1.883a.96.96,0,0,1-.96.96ZM4.13,81.186h0a.941.941,0,0,1-.941-.96V78.344a.922.922,0,0,1,.941-.922h0a.941.941,0,0,1,.941.941v1.883A.941.941,0,0,1,4.13,81.186Zm200.326-2.636h0a.96.96,0,0,1-.941-.96V75.708a.96.96,0,0,1,.941-.922h0a.922.922,0,0,1,.922.941v1.883a.941.941,0,0,1-.922.847ZM4.187,75.538h0a.941.941,0,0,1-.922-.96V72.7a.922.922,0,0,1,.941-.922h0a.941.941,0,0,1,.941.941V74.6A.96.96,0,0,1,4.187,75.538ZM204.57,72.865h0a.96.96,0,0,1-.941-.96V70.022a.941.941,0,0,1,.941-.922h0a.922.922,0,0,1,.922.941v1.883a.941.941,0,0,1-.923.941ZM4.224,69.891h0a.941.941,0,0,1-.941-.941V67.067a.96.96,0,0,1,.941-.941h0a.941.941,0,0,1,.922.96v1.883A.922.922,0,0,1,4.224,69.891ZM204.57,67.255h0a.941.941,0,0,1-.941-.941v-.188a10.736,10.736,0,0,0,0-1.431.96.96,0,0,1,.791-1.073.941.941,0,0,1,1.073.791,11.5,11.5,0,0,1,.113,1.619v.4A.941.941,0,0,1,204.57,67.255ZM4.413,64.243H4.262a.941.941,0,0,1-.772-1.092,9.677,9.677,0,0,1,.527-1.883.941.941,0,0,1,1.2-.565.979.979,0,0,1,.565,1.224,8.283,8.283,0,0,0-.452,1.619.922.922,0,0,1-.922.7ZM203.252,61.89a.941.941,0,0,1-.81-.471,8.848,8.848,0,0,0-.979-1.393.942.942,0,0,1,1.45-1.2,10.166,10.166,0,0,1,1.148,1.675.922.922,0,0,1-.339,1.28,1.016,1.016,0,0,1-.471.113ZM6.785,59.329a.9.9,0,0,1-.621-1.563,13.009,13.009,0,0,1,1.468-1.412.941.941,0,0,1,1.318.151A.922.922,0,0,1,8.8,57.823a10.391,10.391,0,0,0-1.224,1.186.979.979,0,0,1-.791.32Zm192.024-1.487.489-.791-.489.791-1.638-.922a.945.945,0,0,1,.941-1.638l1.619.922ZM11.322,56.091a.941.941,0,0,1-.828-.471.96.96,0,0,1,.377-1.28l1.676-.9a.941.941,0,1,1,.922,1.638l-1.638.9a.941.941,0,0,1-.508.113Zm183.12-.885a1.036,1.036,0,0,1-.471-.132l-1.619-.922a.941.941,0,0,1,.922-1.638l1.619.922a.941.941,0,0,1,.358,1.28.96.96,0,0,1-.809.489ZM16.311,53.38a.922.922,0,0,1-.452-1.751l1.619-.9a.941.941,0,1,1,.922,1.638l-1.638.9a1,1,0,0,1-.452.113Zm173.349-.941a.791.791,0,0,1-.452-.132l-1.638-.922a.941.941,0,0,1-.358-1.28.979.979,0,0,1,1.3-.358l1.619.922a.96.96,0,0,1,.358,1.28.922.922,0,0,1-.979.489ZM21.205,50.669a.922.922,0,0,1-.828-.489.941.941,0,0,1,.358-1.28l1.638-.9a.948.948,0,1,1,.922,1.657l-1.638.9a1,1,0,0,1-.546.113Zm163.6-1a1.017,1.017,0,0,1-.471-.113l-1.619-.922a.96.96,0,0,1-.358-1.3.922.922,0,0,1,1.28-.339l1.619.922a.941.941,0,0,1-.452,1.751ZM26.1,47.958a.922.922,0,0,1-.828-.489.941.941,0,0,1,.358-1.28l1.638-.9a.96.96,0,0,1,1.28.377.941.941,0,0,1-.377,1.28l-1.619.9a1,1,0,0,1-.546.113ZM179.927,46.9a.941.941,0,0,1-.452-.113l-1.638-.922a.945.945,0,1,1,.941-1.638l1.619.922a.96.96,0,0,1,.358,1.28.941.941,0,0,1-.922.471ZM30.976,45.248a.922.922,0,0,1-.81-.489.941.941,0,0,1,.264-1.224l1.638-.9a.944.944,0,1,1,.9,1.657l-1.619.9a1.017,1.017,0,0,1-.471.056Zm144.094-1.092a.847.847,0,0,1-.471-.132L172.98,43.1a.941.941,0,0,1,.922-1.638l1.638.922a.956.956,0,0,1-.565,1.77Zm-139.2-1.619a.943.943,0,0,1-.452-1.77l1.638-.9a.941.941,0,0,1,1.28.377A.922.922,0,0,1,37.96,41.5l-1.619.922a1.017,1.017,0,0,1-.565.113Zm134.323-1.148a.791.791,0,0,1-.452-.132l-1.638-.9a.96.96,0,0,1-.339-1.3.922.922,0,0,1,1.28-.339l1.619.9a.979.979,0,0,1,.358,1.3.941.941,0,0,1-.922.471ZM40.671,39.769a.96.96,0,0,1-.81-.489A.922.922,0,0,1,40.22,38l1.638-.9a.941.941,0,1,1,.9,1.638l-1.619.9a.847.847,0,0,1-.471.132Zm124.571-1.2a1.017,1.017,0,0,1-.471-.113l-1.619-.866a.96.96,0,0,1-.358-1.28.941.941,0,0,1,1.28-.358l1.638.922a.941.941,0,0,1-.471,1.751ZM45.566,37.058a1,1,0,0,1-.828-.489.96.96,0,0,1,.377-1.28l1.638-.9a.941.941,0,0,1,1.28.358.96.96,0,0,1-.377,1.28l-1.638.9a.96.96,0,0,1-.452.188ZM160.4,35.816a.828.828,0,0,1-.452-.132l-1.638-.922a.945.945,0,0,1,.941-1.638l1.619.922a.941.941,0,0,1,.358,1.28.922.922,0,0,1-.866.546ZM50.5,34.329a.96.96,0,0,1-.828-.489.922.922,0,0,1,.377-1.261l1.638-.922a.944.944,0,1,1,.9,1.657l-1.638.9a.941.941,0,0,1-.489.169Zm105.049-1.28a.885.885,0,0,1-.471-.132l-1.619-.922a.941.941,0,0,1-.358-1.28.922.922,0,0,1,1.28-.339l1.638.9a.96.96,0,0,1,.339,1.3.941.941,0,0,1-.847.527ZM55.393,31.618a.922.922,0,0,1-.828-.489.96.96,0,0,1,.377-1.28l1.619-.9a.96.96,0,0,1,1.28.377.941.941,0,0,1-.358,1.28l-1.638.9a.941.941,0,0,1-.489.169Zm95.24-1.261a1,1,0,0,1-.452-.113l-1.619-.922a.96.96,0,0,1-.358-1.3.922.922,0,0,1,1.28-.339l1.619.922a.922.922,0,0,1,.358,1.28A.941.941,0,0,1,150.633,30.356ZM60.269,28.982a.922.922,0,0,1-.847-.508.96.96,0,0,1,.377-1.28l1.619-.9a.96.96,0,0,1,1.28.377.941.941,0,0,1-.358,1.28l-1.638.9a1,1,0,0,1-.452.113ZM145.8,27.589a1.073,1.073,0,0,1-.471-.113l-1.638-.885a.96.96,0,0,1-.358-1.28.941.941,0,0,1,1.28-.358l1.638.922a.941.941,0,0,1-.471,1.751ZM65.164,26.271a.922.922,0,0,1-.828-.489.941.941,0,0,1,.377-1.28l1.619-.9a.948.948,0,1,1,.922,1.657l-1.638.9a1,1,0,0,1-.471.094Zm75.774-1.431a.847.847,0,0,1-.471-.132l-1.619-.922a.922.922,0,0,1-.358-1.28.96.96,0,0,1,1.28-.358l1.619.922a.941.941,0,0,1,.358,1.28.922.922,0,0,1-.828.471Zm-70.88-1.28a.96.96,0,0,1-.828-.489.941.941,0,0,1,.377-1.28l1.619-.9a.935.935,0,1,1,.9,1.638l-1.619.9a.828.828,0,0,1-.471.113Zm66-1.487a.885.885,0,0,1-.471-.132l-1.638-1a.979.979,0,0,1-.358-1.3.941.941,0,0,1,1.3-.339l1.619.922a.941.941,0,0,1,.358,1.28.979.979,0,0,1-.828.546ZM74.953,20.849a.96.96,0,0,1-.828-.489.922.922,0,0,1,.358-1.28l1.638-.9a.96.96,0,0,1,1.28.358.941.941,0,0,1-.377,1.28l-1.619.9a.828.828,0,0,1-.471.113Zm56.2-1.563a1.017,1.017,0,0,1-.471-.113l-1.619-.922a.941.941,0,1,1,.922-1.638l1.619.922a.941.941,0,0,1-.452,1.751ZM79.773,18.1a.941.941,0,0,1-.452-1.751l1.638-.9a.941.941,0,1,1,.9,1.638l-1.619.9a1.017,1.017,0,0,1-.433.113Zm46.5-1.563a.885.885,0,0,1-.471-.132l-1.619-.922a.945.945,0,1,1,.941-1.638l1.619.922a.96.96,0,0,1,.358,1.28.941.941,0,0,1-.791.489ZM84.667,15.39a.941.941,0,0,1-.452-1.751l1.751-.922a.944.944,0,1,1,.9,1.657l-1.619.9a1.017,1.017,0,0,1-.546.113Zm36.748-1.619a.847.847,0,0,1-.471-.132l-1.619-.922a.932.932,0,0,1,.922-1.619l1.619.9a.96.96,0,0,1,.358,1.3.941.941,0,0,1-.772.471ZM89.6,12.679a.922.922,0,0,1-.81-.489.941.941,0,0,1,.358-1.28l1.638-.9a.944.944,0,1,1,.9,1.657l-1.619.9a1.017,1.017,0,0,1-.471.113ZM116.577,11a1.073,1.073,0,0,1-.489-.113l-1.619-.922a.945.945,0,1,1,.941-1.638l1.619.922a.941.941,0,0,1,.358,1.28.96.96,0,0,1-.81.471ZM94.495,9.968a.941.941,0,0,1-.452-1.77l1.638-.9a.944.944,0,0,1,.9,1.657l-1.638.9a.941.941,0,0,1-.452.113ZM111.72,8.236a1.017,1.017,0,0,1-.471-.113L109.631,7.2a.941.941,0,1,1,.922-1.638l1.619.922a.941.941,0,0,1-.452,1.751Zm-12.312-1a1.017,1.017,0,0,1-.828-.452.941.941,0,0,1,.339-1.28,10.957,10.957,0,0,1,1.883-.847.941.941,0,0,1,1.186.584.9.9,0,0,1-.565,1.186,11.3,11.3,0,0,0-1.544.7A.941.941,0,0,1,99.408,7.238Zm7.267-1.186h-.169a10.355,10.355,0,0,0-1.713-.169.941.941,0,1,1,0-1.883h0a11.973,11.973,0,0,1,2.014.188.944.944,0,1,1-.151,1.883Z" transform="translate(2.516 3.5)" fill="#fff"/>
      <path id="Контур_11" data-name="Контур 11" d="M80.912,48.06a28.372,28.372,0,0,1-3.5.584Z" transform="translate(68.322 42.387)" fill="#fff"/>
      <path id="Контур_12" data-name="Контур 12" d="M33.385,56.331a13.593,13.593,0,0,1-.678-1.883v-.113a13.573,13.573,0,0,1-1.167-2.108l102-20.9a52.6,52.6,0,0,1-2.033,6.646A347.415,347.415,0,0,1,45.226,57.366a74.719,74.719,0,0,0-11.841-1.035Z" transform="translate(27.837 27.621)" fill="#fff"/>
      <path id="Контур_13" data-name="Контур 13" d="M35.233,42.194c6.89-3.972,15.889-4.405,19.428-4.405h1.581a4.669,4.669,0,0,0-1.167,1.638h-.847c-5.045,0-13.743.207-15.418,1.506a8.265,8.265,0,0,0-2,2.447,5.648,5.648,0,0,0-1.6.791A6.759,6.759,0,0,0,32.5,47.936s12.369-4.349,18.826-6.683l3.916-1.13h0a.376.376,0,0,0,.245,0c1.487-1.337,14.27-3.633,29.143-5.893a4.706,4.706,0,0,0,2.9.169,4.876,4.876,0,0,0,2.673-1c11.183-1.657,22.873-3.219,31.458-4.292,4.142.358,8.189.81,12.124,1.393h0c-4.669,2.334-56.741,13.178-56.741,13.178C81.13,42.759,133.768,30.5,133.787,30.5,122.491,32.1,37.3,44.359,30.959,50.628a8.622,8.622,0,0,1,0-3.182A8.076,8.076,0,0,1,35.233,42.194Z" transform="translate(27.194 25.662)" fill="#fff"/>
      <path id="Контур_14" data-name="Контур 14" d="M44.46,33.6Z" transform="translate(39.24 29.625)" fill="#fff"/>
      <path id="Контур_15" data-name="Контур 15" d="M123.538,35.365a349.388,349.388,0,0,1-83.418,19l.96.207c1.563-.094,3.144-.151,4.782-.151A76.02,76.02,0,0,1,62.805,56.3c2.937.678,5.78,1.243,8.528,1.732a128.447,128.447,0,0,0,24.7-6.344,58.191,58.191,0,0,1,18.562-3.5,8.66,8.66,0,0,0,1.148-.847l.659-.64.207-.226.471-.433.188-.207.508-.565v-.113l.9-1.13v-.132c.264-.339.508-.7.772-1.073h0a37.764,37.764,0,0,0,3.878-7.53Zm-4.575,6.909C101.191,53.08,67.719,55.453,67.719,55.453a499.2,499.2,0,0,0,51.244-13.178Z" transform="translate(35.41 31.116)" fill="#fff"/>
      <path id="Контур_16" data-name="Контур 16" d="M35.97,36.325c1.186-.941,7.53-1.318,13.649-1.355h-.207A122.99,122.99,0,0,0,34.52,37.813a6.57,6.57,0,0,1,1.45-1.487Z" transform="translate(30.467 30.834)" fill="#fff"/>
      <path id="Контур_17" data-name="Контур 17" d="M31.307,45.053l-.527-.96h.3c5.347.151,44.448-7.173,44.448-7.173C63.2,40.986,31.834,46.013,31.834,46.013Z" transform="translate(27.166 32.555)" fill="#fff"/>
      <path id="Контур_18" data-name="Контур 18" d="M85.53,29.85Z" transform="translate(75.488 26.315)" fill="#fff"/>
      <path id="Контур_19" data-name="Контур 19" d="M47.753,28.219c4.518-.678,5.027-1.638,5.478-2.466S53.8,24.718,55.7,24.36a12.029,12.029,0,0,1,2.2-.169,62.466,62.466,0,0,1,10.58,1.3,22.949,22.949,0,0,0-7,2.447,37.651,37.651,0,0,0-5.648,3.615c-.866-.81-2.749-1.224-5.648-1.224a59.153,59.153,0,0,0-6.89.508v-.113a1.092,1.092,0,0,0-.979-.565,1.111,1.111,0,0,0-.546.132l-.226.169C41.747,29.763,42.933,28.916,47.753,28.219Z" transform="translate(36.663 21.319)" fill="#fff"/>
      <path id="Контур_20" data-name="Контур 20" d="M70.9,25.2c-3.163,0-8.321,1.111-15.061,6.382l-.3.245a39.152,39.152,0,0,0-3.558,3.125l-.621.6-.96.941c-.9.941-1.883,1.883-2.805,3.031h0l-.188-.358-.207-.358-4.462-8-.188-.339-.113-.188a.245.245,0,0,0-.113-.132.376.376,0,0,0-.245,0h-.207a.433.433,0,0,0-.132.132.4.4,0,0,0,0,.358h0l.132.226,4.857,8.716.207.377.207.377h0a.188.188,0,0,0,.094,0h.132c2.334-1.77,6.966-3.859,15.983-5.855A97.54,97.54,0,0,1,73.838,32.6c1.45-.226,2.993-.452,4.594-.659s2.73-.377,4.179-.546l3.765-.452h-1.2a34.54,34.54,0,0,0-3.765.132H80.258a107.894,107.894,0,0,0-10.994-5.215A14.777,14.777,0,0,1,71,25.748a8.509,8.509,0,0,1,3.163.489L86.47,30.85h.169l1.694-.188-13.856-5.2a6.5,6.5,0,0,0-1.412-.4l-.678.207A11.559,11.559,0,0,0,70.9,25.2Zm-3.52,7.85a3.277,3.277,0,0,0-.207-.339l-.264-.245a21.763,21.763,0,0,0-5.648-3.445A23.8,23.8,0,0,1,67.8,26.482a.264.264,0,0,0,.169.151s6.551,2.749,10.637,4.914h0c-2.353.188-4.575.433-6.683.753-1.638.245-3.2.508-4.669.791h0Zm-6.909-3.6h0a26.921,26.921,0,0,1,5.365,3.012l.358.3a2.24,2.24,0,0,1,.282.339h0a76.433,76.433,0,0,0-17.15,5.648c1.13-1.224,2.221-2.316,3.276-3.332l.546-.508.565-.508a41.887,41.887,0,0,1,6.758-4.951Z" transform="translate(36.802 22.096)" fill="#fff"/>
      <path id="Контур_21" data-name="Контур 21" d="M45.455,38.273c2.071-1.657,6.551-3.765,16.058-5.893,2.918-.64,6.326-1.28,10.279-1.883,2.165-.339,4.518-.678,7.041-1l4.123-.508,1.487-.169,2.636-.282h.7c.621,0,13.479.32,19.41.791h-.715c-5.648.734-17.113,2.259-28.8,3.972A8.867,8.867,0,0,0,75.5,33.4a8.415,8.415,0,0,0-2,.527C60.478,35.9,48.053,38.047,44.25,39.572A6.4,6.4,0,0,1,45.455,38.273Z" transform="translate(39.055 25.159)" fill="#fff"/>
      <path id="Контур_22" data-name="Контур 22" d="M13.78,53.453C17.112,51.25,30.422,45,48.288,45H49.38a77.278,77.278,0,0,1,8.359.6l1.619.226,1.45.245.96.169a74.588,74.588,0,0,0-10.317,1.713h0l-.4.094h-.4A61.241,61.241,0,0,0,36.6,53.283c-4.782-.132-8.7-.169-11.484-.169-3.539,0-6.777,0-9.149.151Z" transform="translate(12.162 39.686)" fill="#fff"/>
      <path id="Контур_23" data-name="Контур 23" d="M27.612,52.9l.659-.339A64.969,64.969,0,0,1,41.449,47.9h.4l.414-.094h0A77.187,77.187,0,0,1,54.477,45.92h4.838A74.682,74.682,0,0,1,76.051,47.8c2.2.489,4.349.941,6.457,1.337l-1.883.226-1.77.188-1.883.169c-2.824.113-4.838.113-6.081.113h0a28.238,28.238,0,0,1-5.648-.414l-.527-.245a.34.34,0,0,0-.621.226c0,.4.471.565.941.7s1.525.565,2.711.922l.866.245.922.264a88.689,88.689,0,0,0,12.387,2.3l1.638.188,1.676.151c2.5.207,5.2.32,8,.32a92.755,92.755,0,0,0,16.755-1.506l6.683-1.261c3.05-.113,5.648-.32,7.643-.584A122.671,122.671,0,0,1,85.69,57.366c-3.05,0-6.1-.113-9.074-.358-23.965-1.883-43.3-2.56-49.7-2.56h-2a19.616,19.616,0,0,1,2.071-1.243Z" transform="translate(21.994 40.498)" fill="#fff"/>
      <path id="Контур_24" data-name="Контур 24" d="M96.151,53.994l-2.3.414-2.033.358-2.372.452a93.169,93.169,0,0,1-16.623,1.487q-2.316,0-4.518-.113l-1.77-.038-1.657-.188A91.475,91.475,0,0,1,51.139,54.22l-1-.245-.941-.245-1.13-.339H51.5a40.484,40.484,0,0,0,4.594-.207c1.243-.094,2.636-.207,4.161-.377l1.77-.226,1.676-.226h.64l1.092-.151,1.073-.188c1.374-.226,2.824-.489,4.311-.791s3.483-.791,5.365-1.261h0a125.991,125.991,0,0,0,13.178-3.972A57.231,57.231,0,0,1,106.3,42.586h2.692A49.719,49.719,0,0,1,133.8,48.591C130.038,48.7,115.335,50.624,96.151,53.994Z" transform="translate(42.426 37.545)" fill="#fff"/>
      <rect id="Прямоугольник_1" data-name="Прямоугольник 1" width="200.496" height="1.883" transform="translate(6.175 109.8)" fill="#fff"/>
      <path id="Контур_25" data-name="Контур 25" d="M27.32,29.19l3.822,7.737,8.528,1.224-6.175,6.024,1.468,8.49-7.643-4.01L19.7,52.666l1.45-8.49L14.97,38.151l8.547-1.224Z" transform="translate(13.213 25.732)" fill="#fff"/>
      <path id="Контур_26" data-name="Контур 26" d="M100.57,29.19l3.822,7.737,8.528,1.224-6.175,6.024,1.468,8.49-7.643-4.01-7.624,4.01,1.45-8.49L88.22,38.151l8.547-1.224Z" transform="translate(77.862 25.732)" fill="#fff"/>
      <path id="Контур_27" data-name="Контур 27" d="M61.719,52.34l2.937,5.93,6.551.941-4.744,4.631,1.13,6.514-5.874-3.069-5.855,3.069,1.13-6.514L52.25,59.211,58.8,58.27Z" transform="translate(46.116 46.164)" fill="#fff"/>
      <path id="Контур_28" data-name="Контур 28" d="M62.061,9.19l3.822,7.737,8.528,1.243-6.175,6.005,1.468,8.49-7.643-4.01-7.624,4.01,1.45-8.49L49.73,18.17l8.528-1.243Z" transform="translate(43.892 8.081)" fill="#fff"/>
      <path id="Контур_29" data-name="Контур 29" d="M38.925,63.713A24.7,24.7,0,0,1,24.843,59.44,23.438,23.438,0,0,0,4.605,56.748.942.942,0,0,1,3.909,55a25.057,25.057,0,0,1,22.045,2.918,24.662,24.662,0,0,0,20.709,2.73.941.941,0,0,1,.659,1.751,25.226,25.226,0,0,1-8.4,1.318Z" transform="translate(2.926 47.329)" fill="#fff"/>
      <path id="Контур_30" data-name="Контур 30" d="M46.739,63.713A24.7,24.7,0,0,1,32.657,59.44a23.438,23.438,0,0,0-20.332-2.692.942.942,0,1,1-.7-1.751,25.057,25.057,0,0,1,22.045,2.918,24.662,24.662,0,0,0,20.8,2.73.941.941,0,0,1,.659,1.751,25.226,25.226,0,0,1-8.4,1.318Z" transform="translate(9.739 47.329)" fill="#fff"/>
      <path id="Контур_31" data-name="Контур 31" d="M55.2,63.713a24.7,24.7,0,0,1-14.082-4.236,23.438,23.438,0,0,0-20.294-2.73.942.942,0,1,1-.7-1.751,25.057,25.057,0,0,1,22.045,2.918,24.662,24.662,0,0,0,20.8,2.73.941.941,0,0,1,.659,1.751A25.227,25.227,0,0,1,55.2,63.713Z" transform="translate(17.241 47.329)" fill="#fff"/>
      <path id="Контур_32" data-name="Контур 32" d="M63.2,63.713a24.7,24.7,0,0,1-14.082-4.236,23.438,23.438,0,0,0-20.294-2.73.942.942,0,1,1-.7-1.751,25.057,25.057,0,0,1,22.045,2.918,24.662,24.662,0,0,0,20.708,2.73.941.941,0,0,1,.659,1.751,25.227,25.227,0,0,1-8.34,1.318Z" transform="translate(24.302 47.329)" fill="#fff"/>
      <path id="Контур_33" data-name="Контур 33" d="M71.739,63.713A24.7,24.7,0,0,1,57.657,59.44a23.438,23.438,0,0,0-20.332-2.692.942.942,0,1,1-.7-1.751,25.057,25.057,0,0,1,22.045,2.918,24.662,24.662,0,0,0,20.709,2.73.941.941,0,0,1,.659,1.751,25.227,25.227,0,0,1-8.3,1.318Z" transform="translate(31.804 47.329)" fill="#fff"/>
      <path id="Контур_34" data-name="Контур 34" d="M95.127,63.735a25.227,25.227,0,0,1-8.434-1.355.941.941,0,1,1,.659-1.751,24.624,24.624,0,0,0,20.708-2.73,25.02,25.02,0,0,1,22.064-2.918.942.942,0,0,1-.7,1.751,23.551,23.551,0,0,0-20.313,2.73,24.605,24.605,0,0,1-13.988,4.273Z" transform="translate(75.888 47.308)" fill="#fff"/>
      <path id="Контур_35" data-name="Контур 35" d="M87.377,63.735a25.226,25.226,0,0,1-8.434-1.355.941.941,0,1,1,.659-1.751,24.624,24.624,0,0,0,20.708-2.73,25.02,25.02,0,0,1,22.064-2.918.942.942,0,1,1-.7,1.751,23.551,23.551,0,0,0-20.313,2.73,24.605,24.605,0,0,1-13.988,4.273Z" transform="translate(69.048 47.308)" fill="#fff"/>
      <path id="Контур_36" data-name="Контур 36" d="M78.877,63.735a25.227,25.227,0,0,1-8.434-1.355.941.941,0,1,1,.659-1.751A24.624,24.624,0,0,0,91.811,57.9a25.02,25.02,0,0,1,22.064-2.918.942.942,0,0,1-.7,1.751,23.551,23.551,0,0,0-20.313,2.73,24.606,24.606,0,0,1-13.988,4.273Z" transform="translate(61.546 47.308)" fill="#fff"/>
      <path id="Контур_37" data-name="Контур 37" d="M70.785,63.735a25.227,25.227,0,0,1-8.434-1.355.941.941,0,0,1,.659-1.751A24.624,24.624,0,0,0,83.718,57.9a25.02,25.02,0,0,1,22.064-2.918.942.942,0,0,1-.7,1.751,23.551,23.551,0,0,0-20.313,2.73,24.605,24.605,0,0,1-13.988,4.273Z" transform="translate(54.577 47.308)" fill="#fff"/>
      <path id="Контур_38" data-name="Контур 38" d="M62.377,63.735a25.226,25.226,0,0,1-8.434-1.355.941.941,0,1,1,.659-1.751A24.624,24.624,0,0,0,75.311,57.9a25.02,25.02,0,0,1,22.064-2.918.942.942,0,0,1-.7,1.751,23.551,23.551,0,0,0-20.313,2.73A24.605,24.605,0,0,1,62.377,63.735Z" transform="translate(46.983 47.308)" fill="#fff"/>
      <path id="Контур_39" data-name="Контур 39" d="M69.783,96.6l-2.2-1.243a6.25,6.25,0,0,0,.489-2.447,6.4,6.4,0,0,0-.489-2.429l2.2-1.243A.828.828,0,0,0,70.1,88.1a.847.847,0,0,0-1.148-.32l-2.2,1.243a6.476,6.476,0,0,0-4.405-2.56V83.9a.828.828,0,0,0-.828-.847.847.847,0,0,0-.847.847V86.42a6.533,6.533,0,0,0-4.386,2.56l-2.2-1.243a.847.847,0,0,0-.828,1.468l2.2,1.28a6.4,6.4,0,0,0-.489,2.466,6.25,6.25,0,0,0,.489,2.447L53.2,96.6a.866.866,0,0,0-.32,1.148.885.885,0,0,0,.734.433.866.866,0,0,0,.414-.113l2.2-1.243a6.476,6.476,0,0,0,4.5,2.579v2.523a.847.847,0,0,0,.847.828.828.828,0,0,0,.828-.828V99.41a6.438,6.438,0,0,0,4.405-2.579l2.2,1.243a.866.866,0,0,0,.414.113.885.885,0,0,0,.734-.433.847.847,0,0,0-.377-1.148Zm-7.53-8.49a4.913,4.913,0,0,1,2.937,1.694L64.1,90.43a3.765,3.765,0,0,0-1.883-1.054Zm-1.675,0v1.261a3.577,3.577,0,0,0-1.732,1.111l-1.111-.621a4.97,4.97,0,0,1,2.993-1.751Zm-4.029,4.8a4.687,4.687,0,0,1,.282-1.638l1.111.621a3.445,3.445,0,0,0,0,2.014l-1.111.621a4.65,4.65,0,0,1-.188-1.619Zm4.179,4.8A4.895,4.895,0,0,1,57.81,96l1.035-.621a3.483,3.483,0,0,0,1.883,1.073Zm.791-3.464A1.167,1.167,0,1,1,62.667,93.1a1.148,1.148,0,0,1-1.148,1.148Zm.828,3.558V96.548a3.765,3.765,0,0,0,1.883-1.073l1.092.621a4.895,4.895,0,0,1-2.974,1.619Zm3.765-3.182-1.092-.621a3.539,3.539,0,0,0,.132-1,3.445,3.445,0,0,0-.132-1l1.092-.64a4.838,4.838,0,0,1,0,3.257Z" transform="translate(46.58 73.269)" fill="#fff"/>
      <text id="WORLDYACHTS" transform="translate(28 140)" fill="#fff" font-size="22" font-family="SFProDisplay-Ultralight, SF Pro Display" font-weight="100"><tspan x="0" y="0">WORLD</tspan><tspan y="0" font-family="SFProDisplay-Semibold, SF Pro Display" font-weight="600">YACHTS</tspan></text>
    </g>
  </g>
</svg>
